<svg xmlns="http://www.w3.org/2000/svg" viewBox="0 0 105.4 118.45"><defs><style>.cls-1{fill:#cc8fe3;}.cls-2{fill:lime;stroke:#000;stroke-miterlimit:10;stroke-width:4px;}</style></defs><g id="Layer_2" data-name="Layer 2"><g id="Layer_2-2" data-name="Layer 2"><path class="cls-1" d="M55.76,43.54a62.38,62.38,0,0,1-13.35,19l10,5.8a53.83,53.83,0,0,1,4.82-10.49L46.3,53.29C42.93,62.57,33.87,65.8,27.43,72.48A261.22,261.22,0,0,1,6.13,92.87C2,96.27,5.51,103,10.34,103a24.36,24.36,0,0,1,16.37,5.91l2.62-10a9.77,9.77,0,0,1-4.23.35l3,11.09c.35-.24-.37-.56-.1,0,1.35,2.8,5.6,3.79,8.14,2.14,4.54-3,7.4-7,10.54-11.33,3.48-4.76,8.35-7.52,12.74-11.29,4.09-3.5,7.28-8.15,7.85-13.6C68,69.68,65.88,62.72,66.11,56c.19-5.73-8.46-8.35-11.09-3-4.26,8.64-8.34,17.4-12.79,25.94C38.39,86.28,32.11,88,24.31,89.61L31,98.35c3.79-8.9,15.05-11.66,19.59-20.43a6,6,0,0,0-5.14-9,15.39,15.39,0,0,0-4.72.61l7.32,4.16L48,73.08l-.6,4.58.36-.55c4.2-6.43-6.1-12.4-10.28-6-1.26,1.94-1.16,3.62-.87,5.79.43,3.2,4.56,4.92,7.32,4.16l1.56-.18-5.14-9C35.88,80.55,24.75,83,20.76,92.34c-2.05,4.8,1.29,9.85,6.72,8.75,8.8-1.78,17.55-4.67,22.86-12.4,2.74-4,4.59-8.68,6.72-13L65.3,59,54.2,56a100.16,100.16,0,0,0,1,15.57c.76,6.08-2.52,8.81-7.1,12.18a46.87,46.87,0,0,0-10,9.23c-2.47,3.22-4.49,7.07-8,9.34l8.15,2.13a11.22,11.22,0,0,0-16.19-4.26c-5,3.46-2.94,10.55,3,11.1a19.72,19.72,0,0,0,7.4-.77c4-1.19,6.12-6.93,2.62-10a37,37,0,0,0-24.78-9.4l4.21,10.16C23,94.27,30,85.94,38.16,78.63c3.76-3.39,8.39-5.56,11.91-9.26a36.24,36.24,0,0,0,7.71-12.91C60.12,50,50.25,46.19,46.9,51.87a69.18,69.18,0,0,0-6,13.33C39,71,46.75,75,50.83,71A71.63,71.63,0,0,0,66,49.55c3.17-6.92-7.09-13-10.28-6Z"/><path class="cls-1" d="M41.73,60.31a37.08,37.08,0,0,0-10.66-16v8.42a33.41,33.41,0,0,0,3.76-3.95,20.18,20.18,0,0,0,1.75-2.45q2-1.77-.8-1.33c-3.1-.42-.43,1.78.7,3.07s2.43,2,3.55,3.16l-1.54-5.79c1.59-2.28,1.49-2.72-.31-1.34a7.4,7.4,0,0,1-2.9.91c-6.64,1.37-5,11.75,1.58,11.7h.85L33.5,55c.66.6,1.12,2.75,1.39,3.47,2.67,7.11,14.18,4,11.48-3.17-1.81-4.82-3.29-10.51-9.51-10.46l1.59,11.7c4.06-.84,10.06-3.21,11.44-7.55,1.56-4.94-3.31-7.22-5.74-10.53-2.8-3.81-6.65-5.8-11.36-4.1s-6.69,6.81-10.13,10c-2.25,2.07-2.37,6.37,0,8.42a25.23,25.23,0,0,1,7.59,10.74c2.54,7.17,14,4.09,11.48-3.16Z"/><path class="cls-1" d="M102.09,101.78C99,86,95.09,70.17,93.23,54.19c-1.81-15.62-4.44-31.06-7.55-46.47-1.51-7.51-13-4.33-11.48,3.17,3.16,15.66,5.57,31.3,7.59,47.14s5.73,31.35,8.81,46.91c1.49,7.51,13,4.33,11.49-3.16Z"/><path class="cls-1" d="M78.48,2.41,61.75,4.57c-4.13.54-6.4,3.36-5.74,7.54q4.7,29.81,10.26,59.46c1.79,9.56,3.54,19.15,5.59,28.66.76,3.5,2,6.77,5.91,7.69,3.77.87,8.5-.42,12.31-.79,7.55-.73,7.63-12.64,0-11.9-2.37.23-8.06,1.55-9.82,1L83.82,99c-1.46-1.93-1.52-7.08-2-9.53Q80.67,83.7,79.57,78q-2.22-11.48-4.29-23Q71.13,32,67.49,8.94l-5.74,7.54,16.73-2.16c3.21-.42,5.91-2.44,6-6,0-2.9-2.76-6.36-6-5.95Z"/><path class="cls-1" d="M91.81,94.75c-5.15-11.31-6.68-23.87-8.19-36.08q-2.46-20-4.91-39.94c-.93-7.5-12.85-7.6-11.91,0,1.79,14.53,3.55,29.06,5.37,43.58C73.83,75.57,76,88.5,81.53,100.76c3.18,7,13.44.92,10.28-6Z"/><path class="cls-1" d="M25.74,54.81c7.66,0,7.68-11.91,0-11.91s-7.67,11.91,0,11.91Z"/><path class="cls-1" d="M24.67,54.67c7.66,0,7.67-11.9,0-11.9s-7.68,11.9,0,11.9Z"/><path class="cls-1" d="M29.38,62.37s2.81,2.6,3.45,3.16c2.34,2,6.14,2.52,8.42,0A47,47,0,0,1,54,55.55a6,6,0,0,0,1.21-9.35,68.5,68.5,0,0,0-6.74-5.41c-2.64-1.95-4.82-4.63-7.09-7C36,28.27,27.6,36.7,32.93,42.22a84.52,84.52,0,0,0,7.14,7.15c2.24,1.84,4.59,3.23,6.69,5.25L48,45.27A56.84,56.84,0,0,0,32.83,57.11h8.42c-3.7-3.22-6.75-6.39-11.87-6.65-7.65-.38-7.63,11.53,0,11.91Z"/><path class="cls-1" d="M63.9,49.41c7.66,0,7.67-11.9,0-11.9s-7.67,11.9,0,11.9Z"/><path class="cls-1" d="M19.55,108.37c1-.13,3.52,1.69,4.77,2.3,2.32,1.13,4.72,2.12,7.14,3l-2.63-10,.37-.18c-6.5,4-.53,14.32,6,10.28a7.54,7.54,0,0,0,2-1.68c2.87-3.65,1.86-8.28-2.63-10a52.16,52.16,0,0,1-6.84-3.14c-2.56-1.39-5.19-3-8.23-2.6-3.19.41-6,2.44-6,6,0,2.9,2.74,6.37,6,6Z"/><path class="cls-1" d="M85.07,103.09c-.12-8-1.89-15.64-3-23.49-1.16-8.44.3-16.53.56-24.95a116.89,116.89,0,0,0-1.72-23.4,72.56,72.56,0,0,0-2.62-11.57,11.63,11.63,0,0,0-2-3.91c-.43-.48-3.82-3.43-2.48-1.62-4.51-6.08-14.85-.15-10.28,6,.77,1,1.55,2.43,2.78,3,1,.94,1.24.83.55-.31l.49,1.76c.74,3.58,1.71,7.08,2.29,10.7a104,104,0,0,1,1,23c-.49,7.42-1.28,14.41-.32,21.85,1,7.66,2.79,15.18,2.91,22.94s12,7.68,11.9,0Z"/><path class="cls-1" d="M89.08,108.13c7.66,0,7.67-11.91,0-11.91s-7.68,11.91,0,11.91Z"/><path class="cls-1" d="M97,110c7.66,0,7.68-11.91,0-11.91S89.33,110,97,110Z"/><line class="cls-2" x1="55.62" y1="6.45" x2="73.47" y2="109.72"/><line class="cls-2" x1="84.3" y1="1.98" x2="103.43" y2="109.08"/><line class="cls-2" x1="103.43" y1="109.08" x2="72.83" y2="109.08"/><line class="cls-2" x1="61.35" y1="36.41" x2="1.43" y2="97.61"/><line class="cls-2" x1="67.73" y1="79.76" x2="33.3" y2="116.73"/><line class="cls-2" x1="1.43" y1="97.61" x2="33.3" y2="116.73"/><line class="cls-2" x1="30.75" y1="65.73" x2="16.73" y2="47.88"/><line class="cls-2" x1="52.43" y1="45.33" x2="35.85" y2="30.03"/><line class="cls-2" x1="16.73" y1="47.88" x2="35.85" y2="30.03"/><line class="cls-2" x1="54.98" y1="5.81" x2="84.3" y2="1.98"/></g></g></svg>